<svg xmlns="http://www.w3.org/2000/svg" xmlns:xlink="http://www.w3.org/1999/xlink" width="500" zoomAndPan="magnify" viewBox="0 0 375 374.999991" height="500" preserveAspectRatio="xMidYMid meet" version="1.0"><defs><clipPath id="f96d215ddb"><path d="M 218 31.40625 L 235 31.40625 L 235 63 L 218 63 Z M 218 31.40625 " clip-rule="nonzero"/></clipPath><clipPath id="0ed90c1792"><path d="M 0 109 L 375 109 L 375 343.40625 L 0 343.40625 Z M 0 109 " clip-rule="nonzero"/></clipPath></defs><path fill="#ffffff" d="M 320.179688 187.5 C 315.871094 187.5 312.375 184.003906 312.375 179.695312 C 312.375 132.351562 273.867188 93.84375 226.523438 93.84375 C 208.746094 93.84375 179.585938 103.164062 171.109375 120.660156 C 169.238281 124.546875 164.554688 126.15625 160.683594 124.28125 C 156.796875 122.410156 155.1875 117.726562 157.0625 113.855469 C 169.644531 87.914062 206.339844 78.234375 226.523438 78.234375 C 282.46875 78.234375 327.984375 123.75 327.984375 179.695312 C 327.984375 184.003906 324.488281 187.5 320.179688 187.5 Z M 320.179688 187.5 " fill-opacity="1" fill-rule="nonzero"/><g clip-path="url(#f96d215ddb)"><path fill="#ffffff" d="M 226.523438 62.625 C 222.214844 62.625 218.71875 59.128906 218.71875 54.820312 L 218.71875 39.210938 C 218.71875 34.902344 222.214844 31.40625 226.523438 31.40625 C 230.832031 31.40625 234.328125 34.902344 234.328125 39.210938 L 234.328125 54.820312 C 234.328125 59.128906 230.832031 62.625 226.523438 62.625 Z M 226.523438 62.625 " fill-opacity="1" fill-rule="nonzero"/></g><path fill="#ffffff" d="M 138.222656 99.199219 C 136.222656 99.199219 134.226562 98.433594 132.695312 96.917969 L 121.675781 85.882812 C 118.632812 82.839844 118.632812 77.890625 121.675781 74.847656 C 124.71875 71.804688 129.667969 71.804688 132.710938 74.847656 L 143.746094 85.882812 C 146.789062 88.925781 146.789062 93.875 143.746094 96.917969 C 142.21875 98.433594 140.21875 99.199219 138.222656 99.199219 Z M 138.222656 99.199219 " fill-opacity="1" fill-rule="nonzero"/><path fill="#ffffff" d="M 367.007812 187.5 L 351.398438 187.5 C 347.089844 187.5 343.59375 184.003906 343.59375 179.695312 C 343.59375 175.386719 347.089844 171.890625 351.398438 171.890625 L 367.007812 171.890625 C 371.316406 171.890625 374.8125 175.386719 374.8125 179.695312 C 374.8125 184.003906 371.316406 187.5 367.007812 187.5 Z M 367.007812 187.5 " fill-opacity="1" fill-rule="nonzero"/><path fill="#ffffff" d="M 314.824219 99.199219 C 312.828125 99.199219 310.828125 98.433594 309.300781 96.917969 C 306.257812 93.875 306.257812 88.925781 309.300781 85.882812 L 320.335938 74.847656 C 323.378906 71.804688 328.328125 71.804688 331.371094 74.847656 C 334.414062 77.890625 334.414062 82.839844 331.371094 85.882812 L 320.335938 96.917969 C 318.820312 98.433594 316.824219 99.199219 314.824219 99.199219 Z M 314.824219 99.199219 " fill-opacity="1" fill-rule="nonzero"/><g clip-path="url(#0ed90c1792)"><path fill="#ffffff" d="M 288.960938 343.59375 L 70.429688 343.59375 C 31.703125 343.59375 0.1875 312.078125 0.1875 273.351562 C 0.1875 242.695312 19.917969 216.003906 48.78125 206.683594 C 58.316406 150.894531 106.988281 109.453125 164.085938 109.453125 C 208.871094 109.453125 249.3125 134.789062 269.011719 174.527344 C 275.941406 172.765625 282.515625 171.890625 288.960938 171.890625 C 336.304688 171.890625 374.8125 210.398438 374.8125 257.742188 C 374.8125 305.085938 336.304688 343.59375 288.960938 343.59375 Z M 164.085938 125.0625 C 113.089844 125.0625 69.851562 163.210938 63.515625 213.800781 C 63.109375 217.03125 60.75 219.65625 57.613281 220.421875 C 32.984375 226.367188 15.796875 248.140625 15.796875 273.351562 C 15.796875 303.476562 40.304688 327.984375 70.429688 327.984375 L 288.960938 327.984375 C 327.6875 327.984375 359.203125 296.46875 359.203125 257.742188 C 359.203125 219.015625 327.6875 187.5 288.960938 187.5 C 282.15625 187.5 275.023438 188.765625 267.171875 191.339844 C 263.300781 192.605469 259.132812 190.699219 257.554688 186.96875 C 241.601562 149.367188 204.921875 125.0625 164.085938 125.0625 Z M 164.085938 125.0625 " fill-opacity="1" fill-rule="nonzero"/></g></svg>