<svg xmlns="http://www.w3.org/2000/svg" xmlns:xlink="http://www.w3.org/1999/xlink" width="500" zoomAndPan="magnify" viewBox="0 0 375 374.999991" height="500" preserveAspectRatio="xMidYMid meet" version="1.0"><path fill="#ffffff" d="M 324.644531 158.902344 C 324.363281 157.085938 324 155.285156 323.554688 153.503906 C 323.105469 151.71875 322.582031 149.960938 321.976562 148.222656 C 321.371094 146.488281 320.6875 144.785156 319.929688 143.109375 C 319.167969 141.4375 318.335938 139.800781 317.425781 138.203125 C 316.519531 136.605469 315.539062 135.054688 314.492188 133.542969 C 313.441406 132.035156 312.328125 130.578125 311.144531 129.167969 C 309.964844 127.761719 308.71875 126.410156 307.417969 125.113281 C 306.113281 123.820312 304.753906 122.585938 303.335938 121.414062 C 301.921875 120.242188 300.453125 119.136719 298.9375 118.097656 C 297.421875 117.058594 295.863281 116.09375 294.257812 115.195312 C 292.652344 114.296875 291.011719 113.476562 289.332031 112.726562 C 287.65625 111.980469 285.945312 111.308594 284.207031 110.714844 C 282.464844 110.121094 280.703125 109.609375 278.917969 109.175781 C 277.132812 108.742188 275.328125 108.390625 273.511719 108.121094 C 271.691406 107.851562 269.867188 107.664062 268.03125 107.5625 C 266.195312 107.457031 264.359375 107.4375 262.523438 107.5 C 237.808594 0.144531 83.679688 16.832031 83.011719 127.382812 C 17.523438 145.507812 29.246094 239.664062 97.484375 240.675781 C 97.484375 240.792969 313.042969 240.632812 313.203125 240.695312 C 314.445312 240.695312 315.691406 240.640625 316.929688 240.53125 C 318.171875 240.421875 319.402344 240.253906 320.628906 240.035156 C 321.851562 239.8125 323.066406 239.539062 324.265625 239.207031 C 325.46875 238.878906 326.652344 238.496094 327.816406 238.058594 C 328.984375 237.625 330.128906 237.136719 331.25 236.597656 C 332.375 236.0625 333.46875 235.472656 334.539062 234.835938 C 335.609375 234.199219 336.648438 233.519531 337.660156 232.789062 C 338.667969 232.058594 339.640625 231.285156 340.582031 230.46875 C 341.519531 229.652344 342.421875 228.792969 343.285156 227.898438 C 344.148438 227 344.96875 226.066406 345.75 225.09375 C 346.527344 224.121094 347.261719 223.117188 347.953125 222.082031 C 348.640625 221.042969 349.28125 219.980469 349.875 218.882812 C 350.46875 217.789062 351.011719 216.671875 351.507812 215.527344 C 352 214.386719 352.441406 213.222656 352.832031 212.039062 C 353.21875 210.855469 353.554688 209.660156 353.839844 208.445312 C 354.121094 207.234375 354.347656 206.011719 354.519531 204.777344 C 354.691406 203.546875 354.808594 202.308594 354.871094 201.0625 C 354.933594 199.820312 354.9375 198.574219 354.886719 197.332031 C 354.839844 196.085938 354.734375 194.847656 354.570312 193.613281 C 354.410156 192.378906 354.195312 191.152344 353.925781 189.9375 C 353.652344 188.722656 353.328125 187.523438 352.953125 186.335938 C 352.574219 185.148438 352.144531 183.984375 351.660156 182.835938 C 351.175781 181.6875 350.644531 180.5625 350.0625 179.464844 C 349.476562 178.363281 348.847656 177.292969 348.167969 176.25 C 347.488281 175.207031 346.761719 174.195312 345.992188 173.214844 C 345.222656 172.238281 344.410156 171.296875 343.554688 170.390625 C 342.703125 169.484375 341.808594 168.621094 340.875 167.792969 C 339.945312 166.96875 338.976562 166.1875 337.976562 165.445312 C 336.972656 164.707031 335.941406 164.015625 334.875 163.367188 C 333.8125 162.722656 332.722656 162.125 331.605469 161.574219 C 330.484375 161.027344 329.347656 160.527344 328.183594 160.082031 C 327.023438 159.636719 325.84375 159.242188 324.644531 158.902344 Z M 313.203125 228.847656 C 313.203125 228.847656 97.304688 228.816406 96.871094 228.847656 C 43.988281 227.550781 33.984375 155.316406 84.09375 139.414062 C 85.304688 147.246094 87.511719 154.789062 90.714844 162.039062 C 93.917969 169.289062 98.007812 176 102.984375 182.167969 C 103.226562 182.472656 103.496094 182.753906 103.792969 183.003906 C 104.09375 183.257812 104.414062 183.476562 104.753906 183.664062 C 105.097656 183.855469 105.453125 184.007812 105.824219 184.125 C 106.195312 184.242188 106.578125 184.324219 106.964844 184.367188 C 107.351562 184.410156 107.742188 184.414062 108.128906 184.382812 C 108.519531 184.347656 108.902344 184.277344 109.277344 184.167969 C 109.652344 184.058594 110.011719 183.914062 110.355469 183.730469 C 110.703125 183.550781 111.027344 183.339844 111.332031 183.09375 C 111.636719 182.847656 111.914062 182.578125 112.164062 182.277344 C 112.414062 181.976562 112.632812 181.65625 112.820312 181.3125 C 113.007812 180.972656 113.15625 180.613281 113.273438 180.242188 C 113.390625 179.867188 113.46875 179.488281 113.507812 179.101562 C 113.550781 178.710938 113.554688 178.324219 113.515625 177.933594 C 113.480469 177.546875 113.40625 177.164062 113.296875 176.789062 C 113.183594 176.414062 113.039062 176.054688 112.855469 175.710938 C 112.671875 175.367188 112.460938 175.042969 112.210938 174.738281 C 109.75 171.683594 107.527344 168.464844 105.550781 165.074219 C 103.570312 161.6875 101.859375 158.167969 100.410156 154.523438 C 98.960938 150.875 97.789062 147.140625 96.902344 143.320312 C 96.015625 139.496094 95.417969 135.628906 95.113281 131.71875 C 90.347656 33.203125 227.582031 13.828125 250.753906 109.207031 C 248.460938 109.757812 246.207031 110.445312 243.996094 111.261719 C 241.78125 112.078125 239.625 113.019531 237.519531 114.085938 C 235.414062 115.152344 233.382812 116.339844 231.414062 117.640625 C 229.449219 118.945312 227.566406 120.359375 225.765625 121.882812 C 223.964844 123.40625 222.257812 125.03125 220.644531 126.753906 C 219.03125 128.476562 217.527344 130.285156 216.125 132.183594 C 214.722656 134.078125 213.4375 136.050781 212.265625 138.101562 C 211.09375 140.148438 210.042969 142.253906 209.117188 144.425781 C 208.964844 144.785156 208.851562 145.152344 208.769531 145.535156 C 208.691406 145.914062 208.652344 146.300781 208.648438 146.6875 C 208.644531 147.078125 208.679688 147.464844 208.753906 147.84375 C 208.824219 148.226562 208.933594 148.597656 209.082031 148.960938 C 209.226562 149.320312 209.40625 149.664062 209.621094 149.988281 C 209.832031 150.3125 210.074219 150.613281 210.347656 150.890625 C 210.621094 151.167969 210.917969 151.417969 211.242188 151.636719 C 211.5625 151.855469 211.902344 152.039062 212.261719 152.191406 C 212.617188 152.34375 212.988281 152.460938 213.367188 152.539062 C 213.75 152.617188 214.132812 152.660156 214.523438 152.660156 C 214.914062 152.664062 215.296875 152.628906 215.679688 152.558594 C 216.0625 152.484375 216.433594 152.375 216.792969 152.230469 C 217.15625 152.082031 217.496094 151.902344 217.824219 151.691406 C 218.148438 151.476562 218.449219 151.234375 218.726562 150.960938 C 219.003906 150.6875 219.253906 150.390625 219.472656 150.070312 C 219.691406 149.746094 219.875 149.40625 220.027344 149.050781 C 238.878906 105.589844 301.664062 111.5625 312.25 157.34375 C 310.425781 157.382812 308.617188 157.542969 306.816406 157.820312 C 305.019531 158.097656 303.246094 158.492188 301.496094 159.003906 C 299.75 159.515625 298.042969 160.136719 296.375 160.871094 C 294.707031 161.601562 293.097656 162.441406 291.539062 163.386719 C 289.984375 164.332031 288.496094 165.375 287.074219 166.515625 C 285.652344 167.652344 284.3125 168.878906 283.054688 170.195312 C 281.792969 171.511719 280.625 172.902344 279.546875 174.371094 C 278.472656 175.839844 277.492188 177.371094 276.617188 178.964844 C 276.425781 179.308594 276.265625 179.664062 276.144531 180.035156 C 276.023438 180.410156 275.9375 180.789062 275.890625 181.179688 C 275.847656 181.570312 275.839844 181.960938 275.871094 182.351562 C 275.902344 182.742188 275.96875 183.125 276.078125 183.5 C 276.183594 183.878906 276.328125 184.242188 276.507812 184.589844 C 276.6875 184.9375 276.898438 185.265625 277.140625 185.574219 C 277.386719 185.878906 277.660156 186.160156 277.957031 186.410156 C 278.257812 186.664062 278.582031 186.882812 278.925781 187.074219 C 279.265625 187.261719 279.625 187.414062 280 187.53125 C 280.375 187.648438 280.757812 187.730469 281.144531 187.769531 C 281.535156 187.8125 281.925781 187.816406 282.316406 187.78125 C 282.707031 187.742188 283.089844 187.671875 283.464844 187.558594 C 283.839844 187.445312 284.203125 187.296875 284.546875 187.113281 C 284.894531 186.929688 285.21875 186.714844 285.523438 186.46875 C 285.828125 186.21875 286.101562 185.945312 286.351562 185.640625 C 286.601562 185.339844 286.816406 185.015625 287.003906 184.667969 C 287.746094 183.316406 288.589844 182.035156 289.53125 180.8125 C 290.472656 179.59375 291.5 178.453125 292.617188 177.390625 C 293.734375 176.332031 294.929688 175.363281 296.195312 174.484375 C 297.460938 173.609375 298.789062 172.832031 300.175781 172.160156 C 301.5625 171.488281 302.992188 170.925781 304.464844 170.472656 C 305.9375 170.023438 307.4375 169.6875 308.964844 169.464844 C 310.488281 169.246094 312.023438 169.144531 313.5625 169.160156 C 315.105469 169.175781 316.632812 169.308594 318.15625 169.5625 C 354.03125 176.5625 349.675781 227.835938 313.203125 228.847656 Z M 313.203125 228.847656 " fill-opacity="1" fill-rule="nonzero"/><path fill="#ffffff" d="M 100.511719 335.996094 L 73.152344 335.996094 C 72.761719 335.996094 72.378906 336.03125 71.996094 336.109375 C 71.613281 336.183594 71.242188 336.296875 70.882812 336.445312 C 70.523438 336.59375 70.183594 336.777344 69.859375 336.992188 C 69.535156 337.210938 69.238281 337.457031 68.960938 337.730469 C 68.6875 338.003906 68.441406 338.304688 68.226562 338.628906 C 68.011719 338.953125 67.828125 339.292969 67.679688 339.652344 C 67.53125 340.011719 67.417969 340.382812 67.339844 340.761719 C 67.265625 341.144531 67.226562 341.53125 67.226562 341.917969 L 67.226562 369.28125 C 67.226562 369.667969 67.265625 370.054688 67.339844 370.4375 C 67.417969 370.816406 67.53125 371.1875 67.679688 371.546875 C 67.828125 371.90625 68.011719 372.246094 68.226562 372.570312 C 68.441406 372.894531 68.6875 373.195312 68.960938 373.46875 C 69.238281 373.746094 69.535156 373.988281 69.859375 374.207031 C 70.183594 374.421875 70.523438 374.605469 70.882812 374.753906 C 71.242188 374.902344 71.613281 375.015625 71.996094 375.089844 C 72.378906 375.167969 72.761719 375.203125 73.152344 375.203125 L 100.511719 375.203125 C 100.902344 375.203125 101.285156 375.167969 101.667969 375.089844 C 102.050781 375.015625 102.421875 374.902344 102.78125 374.753906 C 103.140625 374.605469 103.480469 374.421875 103.804688 374.207031 C 104.128906 373.988281 104.425781 373.746094 104.703125 373.46875 C 104.976562 373.195312 105.222656 372.894531 105.4375 372.570312 C 105.652344 372.246094 105.835938 371.90625 105.984375 371.546875 C 106.132812 371.1875 106.246094 370.816406 106.324219 370.4375 C 106.398438 370.054688 106.4375 369.667969 106.4375 369.28125 L 106.4375 341.917969 C 106.4375 341.53125 106.398438 341.144531 106.324219 340.761719 C 106.246094 340.382812 106.132812 340.011719 105.984375 339.652344 C 105.835938 339.292969 105.65625 338.953125 105.4375 338.628906 C 105.222656 338.304688 104.976562 338.003906 104.703125 337.730469 C 104.425781 337.457031 104.128906 337.210938 103.804688 336.992188 C 103.480469 336.777344 103.140625 336.59375 102.78125 336.445312 C 102.421875 336.296875 102.050781 336.183594 101.667969 336.109375 C 101.285156 336.03125 100.902344 335.996094 100.511719 335.996094 Z M 94.589844 363.355469 L 79.074219 363.355469 L 79.074219 347.84375 L 94.589844 347.84375 Z M 94.589844 363.355469 " fill-opacity="1" fill-rule="nonzero"/><path fill="#ffffff" d="M 121.28125 287.121094 C 121.667969 287.121094 122.054688 287.082031 122.433594 287.007812 C 122.816406 286.929688 123.1875 286.820312 123.546875 286.667969 C 123.90625 286.519531 124.246094 286.339844 124.570312 286.121094 C 124.894531 285.90625 125.195312 285.660156 125.46875 285.386719 C 125.742188 285.109375 125.988281 284.8125 126.207031 284.488281 C 126.421875 284.164062 126.605469 283.824219 126.753906 283.464844 C 126.902344 283.105469 127.015625 282.734375 127.089844 282.351562 C 127.164062 281.972656 127.203125 281.585938 127.203125 281.195312 L 127.203125 253.835938 C 127.203125 253.445312 127.164062 253.0625 127.089844 252.679688 C 127.015625 252.296875 126.902344 251.929688 126.753906 251.570312 C 126.605469 251.210938 126.421875 250.867188 126.207031 250.542969 C 125.988281 250.222656 125.742188 249.921875 125.46875 249.648438 C 125.195312 249.371094 124.894531 249.125 124.570312 248.910156 C 124.246094 248.695312 123.90625 248.511719 123.546875 248.363281 C 123.1875 248.214844 122.816406 248.101562 122.433594 248.027344 C 122.054688 247.949219 121.667969 247.910156 121.28125 247.910156 L 93.917969 247.910156 C 93.53125 247.910156 93.144531 247.949219 92.761719 248.027344 C 92.382812 248.101562 92.011719 248.214844 91.652344 248.363281 C 91.292969 248.511719 90.949219 248.695312 90.628906 248.910156 C 90.304688 249.125 90.003906 249.371094 89.730469 249.648438 C 89.453125 249.921875 89.210938 250.222656 88.992188 250.542969 C 88.777344 250.867188 88.59375 251.210938 88.445312 251.570312 C 88.296875 251.929688 88.183594 252.296875 88.109375 252.679688 C 88.03125 253.0625 87.996094 253.445312 87.996094 253.835938 L 87.996094 281.195312 C 87.996094 281.585938 88.03125 281.972656 88.109375 282.351562 C 88.183594 282.734375 88.296875 283.105469 88.445312 283.464844 C 88.59375 283.824219 88.777344 284.164062 88.992188 284.488281 C 89.210938 284.8125 89.453125 285.109375 89.730469 285.386719 C 90.003906 285.660156 90.304688 285.90625 90.628906 286.121094 C 90.949219 286.339844 91.292969 286.519531 91.652344 286.667969 C 92.011719 286.820312 92.382812 286.929688 92.761719 287.007812 C 93.144531 287.082031 93.53125 287.121094 93.917969 287.121094 Z M 99.84375 259.761719 L 115.355469 259.761719 L 115.355469 275.273438 L 99.84375 275.273438 Z M 99.84375 259.761719 " fill-opacity="1" fill-rule="nonzero"/><path fill="#ffffff" d="M 276.765625 279.917969 L 249.40625 279.917969 C 249.019531 279.917969 248.632812 279.953125 248.25 280.03125 C 247.871094 280.105469 247.5 280.21875 247.140625 280.367188 C 246.78125 280.515625 246.441406 280.699219 246.117188 280.914062 C 245.792969 281.132812 245.492188 281.378906 245.21875 281.652344 C 244.945312 281.925781 244.699219 282.226562 244.480469 282.550781 C 244.265625 282.875 244.082031 283.214844 243.933594 283.574219 C 243.785156 283.933594 243.671875 284.304688 243.597656 284.683594 C 243.519531 285.066406 243.484375 285.453125 243.484375 285.839844 L 243.484375 313.210938 C 243.484375 313.601562 243.519531 313.984375 243.597656 314.367188 C 243.671875 314.75 243.785156 315.117188 243.933594 315.476562 C 244.082031 315.835938 244.265625 316.179688 244.480469 316.503906 C 244.699219 316.824219 244.945312 317.125 245.21875 317.398438 C 245.492188 317.675781 245.792969 317.921875 246.117188 318.136719 C 246.441406 318.351562 246.78125 318.535156 247.140625 318.683594 C 247.5 318.832031 247.871094 318.945312 248.25 319.019531 C 248.632812 319.097656 249.019531 319.136719 249.40625 319.136719 L 276.765625 319.136719 C 277.15625 319.136719 277.539062 319.097656 277.921875 319.019531 C 278.300781 318.945312 278.671875 318.832031 279.03125 318.683594 C 279.390625 318.535156 279.734375 318.351562 280.058594 318.136719 C 280.378906 317.921875 280.679688 317.675781 280.953125 317.398438 C 281.230469 317.125 281.476562 316.824219 281.691406 316.503906 C 281.90625 316.179688 282.089844 315.835938 282.238281 315.476562 C 282.386719 315.117188 282.5 314.75 282.574219 314.367188 C 282.652344 313.984375 282.691406 313.601562 282.691406 313.210938 L 282.691406 285.839844 C 282.691406 285.453125 282.652344 285.066406 282.574219 284.683594 C 282.5 284.304688 282.386719 283.933594 282.238281 283.574219 C 282.089844 283.214844 281.90625 282.875 281.691406 282.550781 C 281.476562 282.226562 281.230469 281.925781 280.953125 281.652344 C 280.679688 281.378906 280.378906 281.132812 280.058594 280.914062 C 279.734375 280.699219 279.390625 280.515625 279.03125 280.367188 C 278.671875 280.21875 278.300781 280.105469 277.921875 280.03125 C 277.539062 279.953125 277.15625 279.917969 276.765625 279.917969 Z M 270.839844 307.277344 L 255.332031 307.277344 L 255.332031 291.765625 L 270.839844 291.765625 Z M 270.839844 307.277344 " fill-opacity="1" fill-rule="nonzero"/><path fill="#ffffff" d="M 306.347656 249.648438 L 291.730469 264.261719 C 291.457031 264.539062 291.210938 264.835938 290.992188 265.160156 C 290.777344 265.484375 290.597656 265.824219 290.449219 266.183594 C 290.300781 266.542969 290.1875 266.914062 290.113281 267.296875 C 290.035156 267.675781 290 268.0625 290 268.449219 C 290 268.839844 290.035156 269.226562 290.113281 269.605469 C 290.1875 269.988281 290.300781 270.359375 290.449219 270.71875 C 290.597656 271.074219 290.78125 271.417969 290.996094 271.742188 C 291.214844 272.0625 291.460938 272.363281 291.734375 272.636719 C 292.007812 272.914062 292.308594 273.15625 292.632812 273.375 C 292.953125 273.589844 293.296875 273.773438 293.65625 273.921875 C 294.015625 274.070312 294.386719 274.183594 294.765625 274.257812 C 295.148438 274.335938 295.53125 274.371094 295.921875 274.371094 C 296.308594 274.371094 296.695312 274.335938 297.078125 274.257812 C 297.457031 274.183594 297.828125 274.070312 298.1875 273.921875 C 298.546875 273.773438 298.886719 273.589844 299.210938 273.375 C 299.535156 273.160156 299.835938 272.914062 300.109375 272.640625 L 314.722656 258.023438 C 314.992188 257.746094 315.230469 257.449219 315.4375 257.125 C 315.648438 256.800781 315.824219 256.460938 315.964844 256.105469 C 316.109375 255.746094 316.214844 255.378906 316.285156 255 C 316.355469 254.625 316.390625 254.242188 316.386719 253.855469 C 316.382812 253.472656 316.34375 253.089844 316.265625 252.714844 C 316.1875 252.339844 316.074219 251.972656 315.925781 251.617188 C 315.777344 251.261719 315.597656 250.925781 315.382812 250.605469 C 315.167969 250.285156 314.925781 249.992188 314.652344 249.71875 C 314.378906 249.449219 314.085938 249.203125 313.765625 248.988281 C 313.445312 248.773438 313.109375 248.59375 312.753906 248.445312 C 312.398438 248.296875 312.035156 248.183594 311.65625 248.105469 C 311.28125 248.027344 310.898438 247.988281 310.515625 247.984375 C 310.128906 247.980469 309.75 248.015625 309.371094 248.085938 C 308.992188 248.15625 308.625 248.261719 308.269531 248.40625 C 307.910156 248.546875 307.570312 248.722656 307.246094 248.933594 C 306.925781 249.140625 306.625 249.378906 306.347656 249.648438 Z M 306.347656 249.648438 " fill-opacity="1" fill-rule="nonzero"/><path fill="#ffffff" d="M 231.464844 324.527344 L 211.449219 344.542969 C 211.171875 344.820312 210.929688 345.117188 210.710938 345.441406 C 210.496094 345.765625 210.316406 346.105469 210.167969 346.464844 C 210.019531 346.824219 209.90625 347.195312 209.828125 347.578125 C 209.753906 347.957031 209.714844 348.34375 209.71875 348.730469 C 209.71875 349.121094 209.753906 349.507812 209.832031 349.886719 C 209.90625 350.269531 210.019531 350.640625 210.167969 351 C 210.316406 351.359375 210.5 351.699219 210.714844 352.023438 C 210.933594 352.34375 211.179688 352.644531 211.453125 352.917969 C 211.726562 353.195312 212.027344 353.441406 212.351562 353.65625 C 212.671875 353.871094 213.015625 354.054688 213.375 354.203125 C 213.734375 354.351562 214.105469 354.464844 214.484375 354.539062 C 214.867188 354.617188 215.25 354.652344 215.640625 354.652344 C 216.027344 354.652344 216.414062 354.617188 216.796875 354.539062 C 217.175781 354.464844 217.546875 354.351562 217.90625 354.203125 C 218.265625 354.054688 218.605469 353.871094 218.929688 353.65625 C 219.253906 353.441406 219.554688 353.195312 219.828125 352.921875 L 239.84375 332.90625 C 240.109375 332.628906 240.347656 332.328125 240.558594 332.007812 C 240.765625 331.683594 240.941406 331.34375 241.085938 330.984375 C 241.226562 330.628906 241.332031 330.261719 241.40625 329.882812 C 241.476562 329.503906 241.507812 329.125 241.503906 328.738281 C 241.503906 328.355469 241.460938 327.972656 241.382812 327.597656 C 241.308594 327.21875 241.195312 326.855469 241.046875 326.5 C 240.894531 326.144531 240.714844 325.808594 240.5 325.488281 C 240.285156 325.167969 240.042969 324.875 239.769531 324.601562 C 239.5 324.328125 239.203125 324.085938 238.882812 323.871094 C 238.5625 323.65625 238.226562 323.476562 237.871094 323.328125 C 237.519531 323.179688 237.152344 323.066406 236.777344 322.988281 C 236.398438 322.910156 236.019531 322.871094 235.632812 322.867188 C 235.25 322.863281 234.867188 322.898438 234.488281 322.96875 C 234.109375 323.039062 233.742188 323.144531 233.386719 323.289062 C 233.027344 323.429688 232.6875 323.605469 232.367188 323.816406 C 232.042969 324.023438 231.742188 324.261719 231.464844 324.527344 Z M 231.464844 324.527344 " fill-opacity="1" fill-rule="nonzero"/><path fill="#ffffff" d="M 84.414062 293.792969 C 84.136719 293.515625 83.839844 293.269531 83.515625 293.054688 C 83.191406 292.839844 82.851562 292.65625 82.492188 292.507812 C 82.132812 292.359375 81.761719 292.246094 81.378906 292.171875 C 81 292.09375 80.613281 292.058594 80.226562 292.058594 C 79.835938 292.058594 79.449219 292.09375 79.070312 292.171875 C 78.6875 292.246094 78.316406 292.359375 77.957031 292.507812 C 77.597656 292.65625 77.257812 292.839844 76.933594 293.054688 C 76.609375 293.269531 76.3125 293.515625 76.035156 293.792969 L 25.285156 344.542969 C 25.015625 344.820312 24.777344 345.121094 24.570312 345.445312 C 24.363281 345.765625 24.1875 346.105469 24.042969 346.464844 C 23.902344 346.820312 23.792969 347.1875 23.722656 347.566406 C 23.652344 347.945312 23.617188 348.328125 23.621094 348.710938 C 23.625 349.09375 23.664062 349.476562 23.742188 349.851562 C 23.820312 350.230469 23.933594 350.59375 24.082031 350.949219 C 24.230469 351.304688 24.414062 351.640625 24.625 351.960938 C 24.839844 352.28125 25.085938 352.578125 25.355469 352.847656 C 25.628906 353.121094 25.925781 353.363281 26.242188 353.578125 C 26.5625 353.792969 26.898438 353.972656 27.253906 354.121094 C 27.609375 354.273438 27.976562 354.382812 28.351562 354.460938 C 28.730469 354.539062 29.109375 354.582031 29.492188 354.582031 C 29.878906 354.585938 30.261719 354.554688 30.636719 354.480469 C 31.015625 354.410156 31.382812 354.304688 31.742188 354.160156 C 32.097656 354.019531 32.4375 353.84375 32.761719 353.632812 C 33.085938 353.425781 33.382812 353.1875 33.660156 352.921875 L 84.414062 302.167969 C 84.6875 301.894531 84.933594 301.59375 85.148438 301.269531 C 85.367188 300.945312 85.546875 300.605469 85.695312 300.246094 C 85.847656 299.886719 85.957031 299.515625 86.035156 299.136719 C 86.109375 298.753906 86.148438 298.367188 86.148438 297.980469 C 86.148438 297.589844 86.109375 297.207031 86.035156 296.824219 C 85.957031 296.441406 85.847656 296.074219 85.695312 295.714844 C 85.546875 295.355469 85.367188 295.011719 85.148438 294.6875 C 84.933594 294.367188 84.6875 294.066406 84.414062 293.792969 Z M 84.414062 293.792969 " fill-opacity="1" fill-rule="nonzero"/><path fill="#ffffff" d="M 182.238281 249.648438 L 111.226562 320.660156 C 110.960938 320.9375 110.722656 321.238281 110.511719 321.558594 C 110.304688 321.882812 110.128906 322.222656 109.984375 322.582031 C 109.84375 322.9375 109.734375 323.304688 109.664062 323.683594 C 109.59375 324.0625 109.558594 324.441406 109.5625 324.828125 C 109.566406 325.210938 109.605469 325.59375 109.683594 325.96875 C 109.761719 326.347656 109.875 326.710938 110.023438 327.066406 C 110.171875 327.421875 110.355469 327.757812 110.570312 328.078125 C 110.78125 328.398438 111.027344 328.691406 111.296875 328.964844 C 111.570312 329.238281 111.867188 329.480469 112.183594 329.695312 C 112.503906 329.910156 112.84375 330.089844 113.195312 330.238281 C 113.550781 330.386719 113.917969 330.5 114.292969 330.578125 C 114.671875 330.65625 115.050781 330.695312 115.4375 330.699219 C 115.820312 330.703125 116.203125 330.667969 116.578125 330.597656 C 116.957031 330.527344 117.324219 330.421875 117.683594 330.277344 C 118.039062 330.136719 118.378906 329.960938 118.703125 329.75 C 119.027344 329.542969 119.328125 329.304688 119.601562 329.039062 L 190.609375 258.023438 C 190.875 257.746094 191.109375 257.445312 191.3125 257.125 C 191.519531 256.800781 191.691406 256.460938 191.832031 256.105469 C 191.972656 255.75 192.074219 255.382812 192.144531 255.007812 C 192.210938 254.628906 192.246094 254.25 192.238281 253.867188 C 192.234375 253.484375 192.195312 253.105469 192.117188 252.734375 C 192.035156 252.359375 191.921875 251.996094 191.773438 251.640625 C 191.625 251.289062 191.445312 250.953125 191.230469 250.636719 C 191.019531 250.320312 190.777344 250.023438 190.503906 249.753906 C 190.234375 249.484375 189.941406 249.242188 189.625 249.027344 C 189.304688 248.816406 188.972656 248.632812 188.617188 248.484375 C 188.265625 248.335938 187.902344 248.222656 187.527344 248.144531 C 187.152344 248.066406 186.777344 248.023438 186.394531 248.019531 C 186.011719 248.015625 185.628906 248.046875 185.253906 248.113281 C 184.878906 248.183594 184.511719 248.289062 184.15625 248.425781 C 183.800781 248.566406 183.460938 248.738281 183.136719 248.945312 C 182.8125 249.148438 182.515625 249.382812 182.238281 249.648438 Z M 182.238281 249.648438 " fill-opacity="1" fill-rule="nonzero"/><path fill="#ffffff" d="M 252.667969 249.648438 C 252.394531 249.371094 252.09375 249.128906 251.769531 248.910156 C 251.449219 248.695312 251.105469 248.511719 250.746094 248.363281 C 250.386719 248.214844 250.015625 248.101562 249.636719 248.027344 C 249.253906 247.949219 248.871094 247.914062 248.480469 247.914062 C 248.089844 247.914062 247.707031 247.949219 247.324219 248.027344 C 246.945312 248.101562 246.574219 248.214844 246.214844 248.363281 C 245.855469 248.511719 245.511719 248.695312 245.191406 248.910156 C 244.867188 249.128906 244.566406 249.371094 244.292969 249.648438 L 196.832031 297.097656 C 196.5625 297.375 196.324219 297.671875 196.117188 297.996094 C 195.90625 298.320312 195.730469 298.660156 195.589844 299.015625 C 195.445312 299.375 195.339844 299.742188 195.269531 300.121094 C 195.199219 300.5 195.164062 300.878906 195.167969 301.265625 C 195.171875 301.648438 195.210938 302.03125 195.289062 302.40625 C 195.367188 302.785156 195.480469 303.148438 195.628906 303.503906 C 195.777344 303.859375 195.957031 304.195312 196.171875 304.515625 C 196.386719 304.835938 196.628906 305.128906 196.902344 305.402344 C 197.175781 305.675781 197.46875 305.917969 197.789062 306.132812 C 198.109375 306.347656 198.445312 306.527344 198.800781 306.675781 C 199.15625 306.824219 199.519531 306.9375 199.898438 307.015625 C 200.273438 307.09375 200.65625 307.132812 201.039062 307.136719 C 201.425781 307.140625 201.804688 307.105469 202.183594 307.035156 C 202.5625 306.964844 202.929688 306.859375 203.289062 306.714844 C 203.644531 306.574219 203.984375 306.398438 204.308594 306.1875 C 204.628906 305.980469 204.929688 305.742188 205.207031 305.472656 L 252.667969 258.023438 C 252.945312 257.75 253.1875 257.449219 253.40625 257.125 C 253.621094 256.804688 253.804688 256.460938 253.953125 256.101562 C 254.101562 255.742188 254.214844 255.371094 254.289062 254.992188 C 254.367188 254.609375 254.402344 254.226562 254.402344 253.835938 C 254.402344 253.445312 254.367188 253.0625 254.289062 252.679688 C 254.214844 252.300781 254.101562 251.929688 253.953125 251.570312 C 253.804688 251.210938 253.621094 250.867188 253.40625 250.546875 C 253.1875 250.222656 252.945312 249.921875 252.667969 249.648438 Z M 252.667969 249.648438 " fill-opacity="1" fill-rule="nonzero"/><path fill="#ffffff" d="M 170.042969 323.894531 L 149.394531 344.542969 C 149.113281 344.816406 148.859375 345.117188 148.636719 345.4375 C 148.414062 345.761719 148.222656 346.105469 148.066406 346.464844 C 147.914062 346.828125 147.792969 347.203125 147.714844 347.585938 C 147.632812 347.972656 147.589844 348.359375 147.585938 348.753906 C 147.585938 349.148438 147.621094 349.535156 147.695312 349.921875 C 147.769531 350.308594 147.878906 350.683594 148.027344 351.046875 C 148.175781 351.414062 148.359375 351.757812 148.578125 352.085938 C 148.796875 352.414062 149.042969 352.714844 149.324219 352.992188 C 149.601562 353.273438 149.902344 353.519531 150.230469 353.738281 C 150.558594 353.957031 150.902344 354.140625 151.269531 354.289062 C 151.632812 354.4375 152.007812 354.546875 152.394531 354.621094 C 152.78125 354.695312 153.167969 354.730469 153.5625 354.730469 C 153.957031 354.726562 154.34375 354.683594 154.730469 354.601562 C 155.113281 354.519531 155.488281 354.402344 155.847656 354.25 C 156.210938 354.09375 156.554688 353.902344 156.878906 353.679688 C 157.199219 353.457031 157.5 353.203125 157.773438 352.921875 L 178.421875 332.273438 C 178.6875 331.996094 178.925781 331.695312 179.136719 331.371094 C 179.34375 331.050781 179.519531 330.710938 179.664062 330.351562 C 179.804688 329.996094 179.910156 329.625 179.984375 329.25 C 180.054688 328.871094 180.085938 328.488281 180.085938 328.105469 C 180.082031 327.71875 180.039062 327.339844 179.960938 326.960938 C 179.886719 326.585938 179.773438 326.21875 179.625 325.867188 C 179.476562 325.511719 179.292969 325.171875 179.078125 324.855469 C 178.863281 324.535156 178.621094 324.238281 178.347656 323.96875 C 178.078125 323.695312 177.78125 323.453125 177.460938 323.238281 C 177.144531 323.023438 176.804688 322.839844 176.449219 322.691406 C 176.097656 322.542969 175.730469 322.429688 175.355469 322.355469 C 174.976562 322.277344 174.597656 322.234375 174.210938 322.230469 C 173.828125 322.230469 173.445312 322.261719 173.066406 322.332031 C 172.6875 322.40625 172.320312 322.511719 171.964844 322.652344 C 171.605469 322.796875 171.265625 322.972656 170.945312 323.179688 C 170.621094 323.390625 170.320312 323.628906 170.042969 323.894531 Z M 170.042969 323.894531 " fill-opacity="1" fill-rule="nonzero"/></svg>