<svg xmlns="http://www.w3.org/2000/svg" xmlns:xlink="http://www.w3.org/1999/xlink" width="500" zoomAndPan="magnify" viewBox="0 0 375 374.999991" height="500" preserveAspectRatio="xMidYMid meet" version="1.0"><defs><clipPath id="ba496527c7"><path d="M 2.523438 37.5 L 303 37.5 L 303 130 L 2.523438 130 Z M 2.523438 37.5 " clip-rule="nonzero"/></clipPath><clipPath id="ca2f0c2e2c"><path d="M 210 152 L 372.273438 152 L 372.273438 223 L 210 223 Z M 210 152 " clip-rule="nonzero"/></clipPath><clipPath id="9fc1909464"><path d="M 2.523438 199 L 303 199 L 303 269 L 2.523438 269 Z M 2.523438 199 " clip-rule="nonzero"/></clipPath><clipPath id="9699fb6ce9"><path d="M 49 245 L 234 245 L 234 337.5 L 49 337.5 Z M 49 245 " clip-rule="nonzero"/></clipPath><clipPath id="cb37c94aaf"><path d="M 2.523438 245 L 26 245 L 26 269 L 2.523438 269 Z M 2.523438 245 " clip-rule="nonzero"/></clipPath></defs><g clip-path="url(#ba496527c7)"><path fill="#ffffff" d="M 256.726562 129.808594 L 2.882812 129.808594 L 2.882812 106.730469 L 256.726562 106.730469 C 269.453125 106.730469 279.804688 96.378906 279.804688 83.652344 C 279.804688 70.925781 269.453125 60.578125 256.726562 60.578125 C 244 60.578125 233.652344 70.925781 233.652344 83.652344 L 210.574219 83.652344 C 210.574219 58.199219 231.273438 37.5 256.726562 37.5 C 282.179688 37.5 302.882812 58.199219 302.882812 83.652344 C 302.882812 109.109375 282.179688 129.808594 256.726562 129.808594 Z M 256.726562 129.808594 " fill-opacity="1" fill-rule="nonzero"/></g><g clip-path="url(#ca2f0c2e2c)"><path fill="#ffffff" d="M 337.496094 222.117188 L 325.957031 222.117188 L 325.957031 199.039062 L 337.496094 199.039062 C 343.867188 199.039062 349.035156 193.859375 349.035156 187.5 C 349.035156 181.140625 343.867188 175.960938 337.496094 175.960938 L 210.574219 175.960938 L 210.574219 152.882812 L 337.496094 152.882812 C 356.582031 152.882812 372.113281 168.414062 372.113281 187.5 C 372.113281 206.585938 356.582031 222.117188 337.496094 222.117188 Z M 337.496094 222.117188 " fill-opacity="1" fill-rule="nonzero"/></g><g clip-path="url(#9fc1909464)"><path fill="#ffffff" d="M 268.265625 268.269531 L 256.726562 268.269531 L 256.726562 245.191406 L 268.265625 245.191406 C 274.636719 245.191406 279.804688 240.011719 279.804688 233.652344 C 279.804688 227.296875 274.636719 222.117188 268.265625 222.117188 L 2.882812 222.117188 L 2.882812 199.039062 L 268.265625 199.039062 C 287.351562 199.039062 302.882812 214.570312 302.882812 233.652344 C 302.882812 252.738281 287.351562 268.269531 268.265625 268.269531 Z M 268.265625 268.269531 " fill-opacity="1" fill-rule="nonzero"/></g><g clip-path="url(#9699fb6ce9)"><path fill="#ffffff" d="M 187.496094 337.5 C 162.042969 337.5 141.34375 316.800781 141.34375 291.347656 L 164.421875 291.347656 C 164.421875 304.074219 174.769531 314.421875 187.496094 314.421875 C 200.222656 314.421875 210.574219 304.074219 210.574219 291.347656 C 210.574219 278.621094 200.222656 268.269531 187.496094 268.269531 L 49.035156 268.269531 L 49.035156 245.191406 L 187.496094 245.191406 C 212.949219 245.191406 233.652344 265.890625 233.652344 291.347656 C 233.652344 316.800781 212.949219 337.5 187.496094 337.5 Z M 187.496094 337.5 " fill-opacity="1" fill-rule="nonzero"/></g><path fill="#ffffff" d="M 25.957031 152.882812 L 49.035156 152.882812 L 49.035156 175.960938 L 25.957031 175.960938 Z M 25.957031 152.882812 " fill-opacity="1" fill-rule="nonzero"/><path fill="#ffffff" d="M 72.113281 152.882812 L 187.496094 152.882812 L 187.496094 175.960938 L 72.113281 175.960938 Z M 72.113281 152.882812 " fill-opacity="1" fill-rule="nonzero"/><g clip-path="url(#cb37c94aaf)"><path fill="#ffffff" d="M 2.882812 245.191406 L 25.957031 245.191406 L 25.957031 268.269531 L 2.882812 268.269531 Z M 2.882812 245.191406 " fill-opacity="1" fill-rule="nonzero"/></g></svg>