<svg xmlns="http://www.w3.org/2000/svg" xmlns:xlink="http://www.w3.org/1999/xlink" width="500" zoomAndPan="magnify" viewBox="0 0 375 374.999991" height="500" preserveAspectRatio="xMidYMid meet" version="1.0"><defs><clipPath id="a238f06319"><path d="M 4 32.109375 L 371 32.109375 L 371 342.609375 L 4 342.609375 Z M 4 32.109375 " clip-rule="nonzero"/></clipPath></defs><g clip-path="url(#a238f06319)"><path fill="#ffffff" d="M 313.183594 248.742188 L 309.527344 248.742188 C 304.042969 248.742188 300.386719 245.085938 300.386719 239.601562 C 300.386719 234.117188 304.042969 230.460938 309.527344 230.460938 L 313.183594 230.460938 C 327.808594 230.460938 340.605469 223.148438 347.003906 210.351562 C 355.230469 194.8125 355.230469 177.445312 347.003906 163.734375 C 338.777344 150.023438 325.066406 141.796875 308.613281 141.796875 L 299.472656 141.796875 L 298.558594 133.570312 C 291.246094 84.210938 249.199219 49.476562 199.839844 49.476562 C 161.449219 49.476562 127.628906 70.5 110.261719 105.234375 L 106.605469 111.632812 L 99.292969 109.804688 C 81.011719 105.234375 63.644531 107.976562 46.277344 119.859375 C 37.136719 126.257812 29.824219 134.484375 26.167969 144.539062 C 18.855469 162.820312 19.769531 182.015625 28.910156 197.554688 C 37.136719 213.09375 51.761719 224.976562 69.128906 228.632812 C 73.699219 229.546875 77.355469 235.03125 76.441406 239.601562 C 75.527344 244.171875 70.042969 247.828125 65.472656 246.914062 C 42.621094 241.429688 24.339844 226.804688 13.371094 206.695312 C 2.402344 185.671875 1.488281 161.90625 9.714844 138.140625 C 15.199219 125.34375 24.339844 113.460938 36.222656 105.234375 C 55.417969 92.4375 76.441406 86.953125 96.550781 91.523438 C 117.574219 54.960938 155.964844 32.109375 198.925781 32.109375 C 254.683594 32.109375 302.214844 70.5 314.097656 124.429688 C 333.292969 126.257812 351.574219 137.226562 361.628906 154.59375 C 373.511719 174.703125 373.511719 197.554688 361.628906 219.492188 C 353.402344 237.773438 334.207031 248.742188 313.183594 248.742188 Z M 88.324219 300.84375 L 122.144531 224.0625 C 123.972656 219.492188 122.144531 214.007812 117.574219 212.179688 C 113.003906 210.351562 107.519531 212.179688 105.691406 216.75 L 71.871094 293.53125 C 70.042969 298.101562 71.871094 303.585938 76.441406 305.414062 C 77.355469 306.328125 79.183594 306.328125 80.097656 306.328125 C 83.753906 306.328125 87.410156 304.5 88.324219 300.84375 Z M 170.589844 300.84375 L 204.410156 224.0625 C 206.238281 219.492188 204.410156 214.007812 199.839844 212.179688 C 195.269531 210.351562 189.785156 212.179688 187.957031 216.75 L 154.136719 293.53125 C 152.308594 298.101562 154.136719 303.585938 158.707031 305.414062 C 159.621094 306.328125 161.449219 306.328125 162.363281 306.328125 C 166.019531 306.328125 169.675781 304.5 170.589844 300.84375 Z M 252.855469 300.84375 L 286.675781 224.0625 C 288.503906 219.492188 286.675781 214.007812 282.105469 212.179688 C 277.535156 210.351562 272.050781 212.179688 270.222656 216.75 L 236.402344 293.53125 C 234.574219 298.101562 236.402344 303.585938 240.972656 305.414062 C 241.886719 306.328125 243.714844 306.328125 244.628906 306.328125 C 248.285156 306.328125 251.941406 304.5 252.855469 300.84375 Z M 115.746094 337.40625 L 149.566406 260.625 C 151.394531 256.054688 149.566406 250.570312 144.996094 248.742188 C 140.425781 246.914062 134.941406 248.742188 133.113281 253.3125 L 99.292969 330.09375 C 97.464844 334.664062 99.292969 340.148438 103.863281 341.976562 C 104.777344 342.890625 106.605469 342.890625 107.519531 342.890625 C 111.175781 342.890625 114.832031 341.0625 115.746094 337.40625 Z M 198.011719 337.40625 L 231.832031 260.625 C 233.660156 256.054688 231.832031 250.570312 227.261719 248.742188 C 222.691406 246.914062 217.207031 248.742188 215.378906 253.3125 L 181.558594 330.09375 C 179.730469 334.664062 181.558594 340.148438 186.128906 341.976562 C 187.042969 342.890625 188.871094 342.890625 189.785156 342.890625 C 193.441406 342.890625 197.097656 341.0625 198.011719 337.40625 Z M 198.011719 337.40625 " fill-opacity="1" fill-rule="nonzero"/></g></svg>