<svg xmlns="http://www.w3.org/2000/svg" xmlns:xlink="http://www.w3.org/1999/xlink" width="500" zoomAndPan="magnify" viewBox="0 0 375 374.999991" height="500" preserveAspectRatio="xMidYMid meet" version="1.0"><defs><clipPath id="8b58533587"><path d="M 26.394531 0 L 348.894531 0 L 348.894531 372 L 26.394531 372 Z M 26.394531 0 " clip-rule="nonzero"/></clipPath></defs><g clip-path="url(#8b58533587)"><path fill="#ffffff" d="M 348.550781 92.941406 L 334.601562 84.933594 L 298.074219 105.984375 L 298.074219 77.824219 L 284.128906 69.726562 L 270.179688 77.824219 L 270.179688 122.089844 L 201.441406 161.859375 L 201.441406 82.414062 L 239.859375 60.277344 L 239.859375 44.171875 L 225.914062 36.164062 L 201.441406 50.203125 L 201.441406 8.09375 L 187.496094 -0.00390625 L 173.546875 8.09375 L 173.546875 50.203125 L 149.074219 36.164062 L 135.128906 44.171875 L 135.128906 60.277344 L 173.546875 82.414062 L 173.546875 161.859375 L 104.808594 122.089844 L 104.808594 77.824219 L 90.859375 69.726562 L 76.914062 77.824219 L 76.914062 105.984375 L 40.386719 84.933594 L 26.4375 92.941406 L 26.4375 109.046875 L 62.96875 130.191406 L 38.496094 144.316406 L 38.496094 160.421875 L 52.441406 168.429688 L 90.859375 146.296875 L 159.601562 185.972656 L 90.859375 225.652344 L 52.441406 203.519531 L 38.496094 211.527344 L 38.496094 227.632812 L 62.96875 241.757812 L 26.4375 262.902344 L 26.4375 278.917969 L 40.386719 287.015625 L 76.914062 265.871094 L 76.914062 294.125 L 90.859375 302.222656 L 104.808594 294.125 L 104.808594 249.855469 L 173.546875 210.085938 L 173.546875 289.535156 L 135.128906 311.667969 L 135.128906 327.773438 L 149.074219 335.78125 L 173.546875 321.746094 L 173.546875 363.855469 L 187.496094 371.953125 L 201.441406 363.855469 L 201.441406 321.746094 L 225.914062 335.78125 L 239.859375 327.773438 L 239.859375 311.667969 L 201.441406 289.535156 L 201.441406 210.085938 L 270.179688 249.855469 L 270.179688 294.125 L 284.128906 302.222656 L 298.074219 294.125 L 298.074219 265.871094 L 334.601562 287.015625 L 348.550781 278.917969 L 348.550781 262.902344 L 312.019531 241.757812 L 336.492188 227.632812 L 336.492188 211.527344 L 322.546875 203.519531 L 284.128906 225.652344 L 215.386719 185.972656 L 284.128906 146.296875 L 322.546875 168.429688 L 336.492188 160.421875 L 336.492188 144.316406 L 312.019531 130.191406 L 348.550781 109.046875 Z M 348.550781 92.941406 " fill-opacity="1" fill-rule="evenodd"/></g></svg>