<svg xmlns="http://www.w3.org/2000/svg" xmlns:xlink="http://www.w3.org/1999/xlink" width="500" zoomAndPan="magnify" viewBox="0 0 375 374.999991" height="500" preserveAspectRatio="xMidYMid meet" version="1.0"><defs><clipPath id="e8f33a38e7"><path d="M 7.699219 7.699219 L 367.699219 7.699219 L 367.699219 367.699219 L 7.699219 367.699219 Z M 7.699219 7.699219 " clip-rule="nonzero"/></clipPath></defs><g clip-path="url(#e8f33a38e7)"><path fill="#ffffff" d="M 187.664062 7.699219 C 182.933594 7.699219 179.097656 11.539062 179.097656 16.269531 L 179.097656 67.6875 C 179.097656 72.417969 182.933594 76.257812 187.664062 76.257812 C 192.394531 76.257812 196.234375 72.417969 196.234375 67.6875 L 196.234375 16.269531 C 196.234375 11.539062 192.394531 7.699219 187.664062 7.699219 Z M 101.738281 30.667969 C 100.347656 30.703125 98.960938 31.078125 97.683594 31.816406 C 93.585938 34.179688 92.191406 39.425781 94.554688 43.523438 L 120.265625 88.042969 C 122.628906 92.140625 127.867188 93.550781 131.960938 91.1875 C 136.058594 88.820312 137.457031 83.570312 135.089844 79.472656 L 109.382812 34.953125 C 107.753906 32.132812 104.769531 30.589844 101.738281 30.667969 Z M 273.59375 30.667969 C 270.5625 30.589844 267.578125 32.132812 265.949219 34.953125 L 240.242188 79.472656 C 237.875 83.570312 239.273438 88.820312 243.371094 91.1875 C 247.464844 93.550781 252.703125 92.140625 255.066406 88.042969 L 280.777344 43.523438 C 283.140625 39.425781 281.746094 34.171875 277.648438 31.808594 C 276.371094 31.0625 274.984375 30.703125 273.59375 30.667969 Z M 39.46875 93.398438 C 36.425781 93.320312 33.445312 94.863281 31.816406 97.683594 C 29.449219 101.78125 30.855469 107.015625 34.953125 109.382812 L 79.472656 135.089844 C 83.570312 137.457031 88.820312 136.058594 91.1875 131.960938 C 93.550781 127.867188 92.140625 122.628906 88.042969 120.265625 L 43.523438 94.554688 C 42.238281 93.816406 40.847656 93.433594 39.46875 93.398438 Z M 187.664062 93.398438 C 135.640625 93.398438 93.398438 135.640625 93.398438 187.664062 C 93.398438 239.691406 135.640625 281.933594 187.664062 281.933594 C 239.691406 281.933594 281.933594 239.691406 281.933594 187.664062 C 281.933594 135.640625 239.691406 93.398438 187.664062 93.398438 Z M 335.863281 93.398438 C 334.484375 93.433594 333.09375 93.816406 331.808594 94.554688 L 287.289062 120.265625 C 283.191406 122.628906 281.777344 127.867188 284.144531 131.960938 C 286.507812 136.058594 291.761719 137.457031 295.859375 135.089844 L 340.378906 109.382812 C 344.476562 107.015625 345.898438 101.78125 343.53125 97.683594 C 341.902344 94.863281 338.90625 93.320312 335.863281 93.398438 Z M 187.664062 110.539062 C 230.230469 110.539062 264.792969 145.101562 264.792969 187.664062 C 264.792969 230.230469 230.230469 264.792969 187.664062 264.792969 C 145.101562 264.792969 110.539062 230.230469 110.539062 187.664062 C 110.539062 145.101562 145.101562 110.539062 187.664062 110.539062 Z M 16.269531 179.097656 C 11.539062 179.097656 7.699219 182.933594 7.699219 187.664062 C 7.699219 192.394531 11.539062 196.234375 16.269531 196.234375 L 67.6875 196.234375 C 72.417969 196.234375 76.257812 192.394531 76.257812 187.664062 C 76.257812 182.933594 72.417969 179.097656 67.6875 179.097656 Z M 307.640625 179.097656 C 302.910156 179.097656 299.074219 182.933594 299.074219 187.664062 C 299.074219 192.394531 302.910156 196.234375 307.640625 196.234375 L 359.0625 196.234375 C 363.792969 196.234375 367.628906 192.394531 367.628906 187.664062 C 367.628906 182.933594 363.792969 179.097656 359.0625 179.097656 Z M 83.542969 239.085938 C 82.15625 239.117188 80.75 239.503906 79.472656 240.242188 L 34.953125 265.949219 C 30.855469 268.316406 29.449219 273.550781 31.816406 277.648438 C 34.179688 281.746094 39.425781 283.140625 43.523438 280.777344 L 88.042969 255.066406 C 92.140625 252.703125 93.550781 247.464844 91.1875 243.371094 C 89.558594 240.550781 86.578125 239.007812 83.542969 239.085938 Z M 291.804688 239.085938 C 288.773438 239.007812 285.773438 240.550781 284.144531 243.367188 C 281.777344 247.464844 283.191406 252.703125 287.289062 255.066406 L 331.808594 280.777344 C 335.90625 283.140625 341.167969 281.746094 343.53125 277.648438 C 345.898438 273.550781 344.476562 268.316406 340.378906 265.949219 L 295.859375 240.242188 C 294.582031 239.503906 293.195312 239.117188 291.804688 239.085938 Z M 127.910156 283.003906 C 124.875 282.925781 121.894531 284.46875 120.265625 287.289062 L 94.554688 331.808594 C 92.191406 335.90625 93.585938 341.148438 97.683594 343.515625 C 101.78125 345.878906 107.015625 344.476562 109.382812 340.378906 L 135.089844 295.859375 C 137.457031 291.761719 136.058594 286.507812 131.960938 284.144531 C 130.683594 283.40625 129.296875 283.039062 127.910156 283.003906 Z M 247.421875 283.003906 C 246.035156 283.039062 244.644531 283.40625 243.367188 284.144531 C 239.273438 286.507812 237.875 291.761719 240.242188 295.859375 L 265.949219 340.378906 C 268.316406 344.476562 273.550781 345.898438 277.648438 343.523438 C 281.746094 341.160156 283.140625 335.90625 280.777344 331.808594 L 255.066406 287.289062 C 253.4375 284.46875 250.457031 282.925781 247.421875 283.003906 Z M 187.664062 299.074219 C 182.933594 299.074219 179.097656 302.910156 179.097656 307.640625 L 179.097656 359.0625 C 179.097656 363.792969 182.933594 367.628906 187.664062 367.628906 C 192.394531 367.628906 196.234375 363.792969 196.234375 359.0625 L 196.234375 307.640625 C 196.234375 302.910156 192.394531 299.074219 187.664062 299.074219 Z M 187.664062 299.074219 " fill-opacity="1" fill-rule="evenodd"/></g></svg>