<svg xmlns="http://www.w3.org/2000/svg" xmlns:xlink="http://www.w3.org/1999/xlink" width="500" zoomAndPan="magnify" viewBox="0 0 375 374.999991" height="500" preserveAspectRatio="xMidYMid meet" version="1.0"><defs><clipPath id="be89b44831"><path d="M 14.53125 0 L 360.28125 0 L 360.28125 217 L 14.53125 217 Z M 14.53125 0 " clip-rule="nonzero"/></clipPath></defs><path fill="#ffffff" d="M 91.78125 111.601562 C 87.785156 111.601562 84.574219 108.449219 84.574219 104.449219 L 84.574219 104.335938 C 84.574219 100.339844 87.785156 97.128906 91.78125 97.128906 C 95.777344 97.128906 98.988281 100.339844 98.988281 104.335938 C 98.988281 108.335938 95.777344 111.601562 91.78125 111.601562 " fill-opacity="1" fill-rule="nonzero"/><g clip-path="url(#be89b44831)"><path fill="#ffffff" d="M 320.097656 216.328125 L 216.609375 216.328125 C 212.613281 216.328125 209.402344 213.117188 209.402344 209.121094 C 209.402344 205.125 212.613281 201.914062 216.609375 201.914062 L 320.097656 201.914062 C 334.398438 201.914062 346.054688 190.089844 346.054688 175.507812 C 346.054688 160.925781 334.398438 149.042969 320.097656 149.042969 C 316.832031 149.042969 313.566406 149.664062 310.414062 150.957031 C 307.597656 152.085938 304.332031 151.351562 302.363281 149.042969 C 300.335938 146.792969 299.941406 143.46875 301.40625 140.824219 C 304.558594 134.910156 306.246094 128.265625 306.246094 121.625 C 306.246094 99.664062 288.679688 81.816406 267.058594 81.816406 C 256.191406 81.816406 246.113281 86.265625 238.570312 94.257812 C 236.429688 96.625 232.9375 97.1875 230.121094 95.777344 C 227.25 94.371094 225.675781 91.21875 226.238281 88.066406 C 226.632812 86.039062 226.6875 83.5625 226.6875 81.253906 C 226.6875 44.484375 197.242188 14.53125 160.980469 14.53125 C 124.71875 14.53125 95.273438 44.484375 95.273438 81.253906 C 95.273438 88.460938 96.398438 95.441406 98.59375 102.027344 C 99.496094 104.617188 98.820312 107.492188 96.847656 109.460938 C 94.878906 111.375 92.007812 112.050781 89.417969 111.152344 C 84.742188 109.519531 79.789062 108.671875 74.777344 108.671875 C 49.496094 108.671875 28.945312 129.617188 28.945312 155.351562 C 28.945312 181.023438 49.496094 201.914062 74.777344 201.914062 L 82.152344 201.914062 C 86.152344 201.914062 89.359375 205.125 89.359375 209.121094 C 89.359375 213.117188 86.152344 216.328125 82.152344 216.328125 L 74.777344 216.328125 C 41.558594 216.328125 14.53125 188.964844 14.53125 155.351562 C 14.53125 121.679688 41.558594 94.257812 74.777344 94.257812 C 77.199219 94.257812 79.5625 94.371094 81.929688 94.652344 C 81.195312 90.261719 80.859375 85.8125 80.859375 81.253906 C 80.859375 36.546875 116.78125 0.117188 160.980469 0.117188 C 202.871094 0.117188 237.328125 32.832031 240.820312 74.328125 C 248.703125 69.824219 257.65625 67.402344 267.058594 67.402344 C 296.617188 67.402344 320.660156 91.726562 320.660156 121.625 C 320.660156 126.015625 320.15625 130.351562 319.140625 134.628906 C 341.382812 134.121094 360.46875 152.648438 360.46875 175.507812 C 360.46875 198.027344 342.339844 216.328125 320.097656 216.328125 " fill-opacity="1" fill-rule="nonzero"/></g><path fill="#ffffff" d="M 90.429688 273.984375 L 122.636719 273.984375 C 124.832031 273.984375 126.972656 274.996094 128.324219 276.742188 C 129.675781 278.488281 130.179688 280.796875 129.617188 282.9375 L 115.878906 337.945312 L 179.5625 259.570312 L 151.464844 259.570312 C 148.929688 259.570312 146.621094 258.273438 145.328125 256.136719 C 144.03125 253.996094 143.921875 251.351562 145.046875 249.097656 L 183.558594 173.085938 L 134.574219 173.085938 Z M 101.015625 374.882812 C 99.945312 374.882812 98.820312 374.65625 97.804688 374.09375 C 94.765625 372.628906 93.1875 369.195312 94.035156 365.929688 L 113.402344 288.398438 L 79.394531 288.398438 C 76.972656 288.398438 74.722656 287.160156 73.371094 285.132812 C 72.019531 283.105469 71.792969 280.515625 72.808594 278.320312 L 123.257812 163.007812 C 124.382812 160.359375 126.972656 158.671875 129.84375 158.671875 L 195.328125 158.671875 C 197.804688 158.671875 200.167969 159.96875 201.464844 162.105469 C 202.757812 164.246094 202.871094 166.890625 201.746094 169.144531 L 163.175781 245.15625 L 194.707031 245.15625 C 197.464844 245.15625 200 246.734375 201.238281 249.265625 C 202.421875 251.800781 202.082031 254.726562 200.28125 256.925781 L 106.589844 372.238281 C 105.183594 373.980469 103.097656 374.882812 101.015625 374.882812 " fill-opacity="1" fill-rule="nonzero"/><path fill="#ffffff" d="M 281.191406 288.398438 C 280.460938 288.398438 279.671875 288.285156 278.9375 288.003906 C 275.167969 286.765625 273.082031 282.710938 274.378906 278.9375 L 288.792969 235.695312 C 290.03125 231.925781 294.085938 229.839844 297.859375 231.136719 C 301.628906 232.375 303.714844 236.429688 302.417969 240.203125 L 288.003906 283.445312 C 287.046875 286.484375 284.230469 288.398438 281.191406 288.398438 " fill-opacity="1" fill-rule="nonzero"/><path fill="#ffffff" d="M 223.535156 331.640625 C 222.804688 331.640625 222.015625 331.527344 221.28125 331.246094 C 217.511719 330.007812 215.425781 325.953125 216.722656 322.179688 L 231.136719 278.9375 C 232.375 275.167969 236.429688 273.082031 240.203125 274.378906 C 243.972656 275.617188 246.058594 279.671875 244.761719 283.445312 L 230.347656 326.6875 C 229.390625 329.726562 226.574219 331.640625 223.535156 331.640625 " fill-opacity="1" fill-rule="nonzero"/></svg>