<svg xmlns="http://www.w3.org/2000/svg" xmlns:xlink="http://www.w3.org/1999/xlink" width="500" zoomAndPan="magnify" viewBox="0 0 375 374.999991" height="500" preserveAspectRatio="xMidYMid meet" version="1.0"><defs><clipPath id="8be4900682"><path d="M 6.5625 264 L 368.8125 264 L 368.8125 375 L 6.5625 375 Z M 6.5625 264 " clip-rule="nonzero"/></clipPath></defs><g clip-path="url(#8be4900682)"><path fill="#ffffff" d="M 364.753906 375 L 10.246094 375 C 8.238281 375 6.664062 373.421875 6.664062 371.417969 L 6.664062 352.933594 C 6.664062 352.574219 6.734375 352.214844 6.804688 351.859375 C 8.238281 337.957031 20.132812 327.210938 34.246094 327.210938 C 38.332031 327.210938 42.273438 328.070312 45.925781 329.789062 C 50.082031 320.621094 59.324219 314.53125 69.710938 314.53125 C 75.371094 314.53125 80.816406 316.320312 85.261719 319.6875 C 90.703125 313.742188 98.441406 310.304688 106.609375 310.304688 C 108.546875 310.304688 110.550781 310.519531 112.414062 310.875 C 118.21875 299.984375 129.753906 293.25 142.433594 293.96875 C 150.316406 276.414062 168.082031 264.808594 187.429688 264.808594 C 206.773438 264.808594 224.542969 276.414062 232.421875 293.96875 C 232.996094 293.96875 233.640625 293.894531 234.214844 293.894531 C 246.179688 293.894531 256.925781 300.414062 262.441406 310.804688 C 264.378906 310.445312 266.3125 310.230469 268.246094 310.230469 C 276.414062 310.230469 284.152344 313.671875 289.597656 319.617188 C 294.109375 316.25 299.484375 314.457031 305.144531 314.457031 C 315.53125 314.457031 324.703125 320.546875 328.929688 329.71875 C 332.585938 328 336.527344 327.140625 340.609375 327.140625 C 354.652344 327.140625 366.546875 337.886719 368.050781 351.785156 C 368.121094 352.144531 368.195312 352.503906 368.195312 352.859375 L 368.195312 371.417969 C 368.335938 373.421875 366.6875 375 364.753906 375 Z M 13.828125 367.835938 L 361.101562 367.835938 L 361.101562 353.722656 C 361.101562 353.578125 361.027344 353.433594 361.027344 353.21875 C 360.242188 342.617188 351.285156 334.375 340.679688 334.375 C 336.527344 334.375 332.511719 335.59375 329.074219 337.957031 C 328.144531 338.601562 326.851562 338.746094 325.777344 338.386719 C 324.703125 337.957031 323.84375 337.027344 323.558594 335.953125 C 321.40625 327.570312 313.8125 321.695312 305.214844 321.695312 C 300.128906 321.695312 295.328125 323.699219 291.746094 327.355469 C 291.03125 328.144531 289.957031 328.5 288.878906 328.429688 C 287.804688 328.359375 286.875 327.785156 286.230469 326.925781 C 282.144531 321.050781 275.410156 317.539062 268.246094 317.539062 C 265.953125 317.539062 263.730469 317.898438 261.511719 318.613281 C 259.71875 319.1875 257.785156 318.328125 257.070312 316.535156 C 253.199219 307.222656 244.246094 301.203125 234.140625 301.203125 C 232.996094 301.203125 231.777344 301.273438 230.558594 301.488281 C 228.910156 301.707031 227.265625 300.773438 226.691406 299.199219 C 220.527344 283.003906 204.695312 272.113281 187.355469 272.113281 C 170.019531 272.113281 154.183594 283.003906 148.023438 299.199219 C 147.449219 300.773438 145.800781 301.707031 144.152344 301.488281 C 142.9375 301.347656 141.71875 301.203125 140.570312 301.203125 C 130.46875 301.203125 121.511719 307.222656 117.644531 316.535156 C 116.929688 318.253906 114.992188 319.1875 113.203125 318.613281 C 111.054688 317.898438 108.761719 317.539062 106.46875 317.539062 C 99.300781 317.539062 92.640625 321.050781 88.484375 326.925781 C 87.910156 327.785156 86.90625 328.359375 85.832031 328.429688 C 84.757812 328.5 83.753906 328.144531 82.96875 327.355469 C 79.386719 323.699219 74.585938 321.695312 69.496094 321.695312 C 60.828125 321.695312 53.304688 327.570312 51.15625 335.953125 C 50.871094 337.097656 50.007812 338.03125 48.933594 338.386719 C 47.859375 338.816406 46.640625 338.675781 45.640625 337.957031 C 42.199219 335.59375 38.1875 334.375 34.03125 334.375 C 23.429688 334.375 14.472656 342.6875 13.683594 353.21875 C 13.683594 353.363281 13.683594 353.507812 13.613281 353.722656 Z M 13.828125 367.835938 " fill-opacity="1" fill-rule="nonzero"/></g><path fill="#ffffff" d="M 218.09375 283.792969 C 216.515625 283.792969 215.085938 282.71875 214.652344 281.140625 C 207.992188 255.636719 165.648438 239.15625 165.21875 239.015625 C 165.21875 239.015625 165.144531 239.015625 165.144531 239.015625 C 156.976562 235.648438 152.609375 230.632812 152.105469 224.039062 C 151.316406 213.007812 161.921875 199.035156 184.5625 181.339844 C 200.613281 168.800781 217.089844 158.984375 217.234375 158.839844 C 267.386719 129.753906 290.957031 104.746094 301.847656 88.984375 C 313.167969 72.578125 313.597656 62.476562 313.597656 61.757812 C 312.808594 49.867188 305.574219 40.050781 291.960938 32.527344 C 271.183594 20.992188 236.363281 15.402344 196.382812 17.195312 C 159.128906 18.84375 122.875 26.9375 101.738281 38.332031 C 95.433594 41.699219 91.0625 47.644531 89.703125 54.738281 C 88.339844 61.902344 90.203125 69.140625 94.789062 74.800781 C 108.546875 91.351562 115.710938 102.742188 117.144531 105.175781 C 118.074219 106.109375 119.507812 108.1875 119.648438 111.554688 C 120.007812 120.367188 111.195312 132.402344 93.5 147.449219 C 79.457031 159.269531 72.863281 172.023438 73.796875 185.207031 C 75.730469 212.71875 109.621094 237.9375 129.679688 250.476562 C 140.070312 256.996094 151.820312 262.15625 164.429688 265.808594 C 167.082031 266.597656 169.660156 267.457031 172.097656 268.390625 C 173.957031 269.105469 174.890625 271.183594 174.171875 273.046875 C 173.457031 274.910156 171.378906 275.839844 169.515625 275.125 C 167.296875 274.265625 164.929688 273.476562 162.421875 272.761719 C 149.097656 268.960938 136.773438 263.515625 125.8125 256.640625 C 99.949219 240.375 68.636719 214.941406 66.558594 185.78125 C 65.484375 170.160156 72.9375 155.472656 88.769531 142.003906 C 109.621094 124.378906 112.269531 115.421875 112.414062 112.414062 C 112.484375 111.125 112.199219 110.550781 111.984375 110.265625 C 111.484375 109.976562 111.484375 109.835938 111.125 109.261719 C 111.054688 109.117188 103.960938 97.152344 89.128906 79.3125 C 83.109375 72.078125 80.675781 62.621094 82.539062 53.304688 C 84.328125 44.132812 90.058594 36.398438 98.226562 31.953125 C 144.296875 7.238281 248.113281 0 295.328125 26.222656 C 311.234375 35.035156 319.6875 46.929688 320.621094 61.402344 C 320.621094 61.402344 320.621094 61.472656 320.621094 61.472656 C 320.691406 63.265625 320.976562 106.824219 220.746094 165.003906 C 220.601562 165.074219 204.480469 174.746094 188.789062 187 C 162.207031 207.777344 158.769531 218.808594 159.128906 223.464844 C 159.199219 224.828125 159.558594 228.910156 167.652344 232.28125 C 170.089844 233.210938 213.867188 250.40625 221.460938 279.28125 C 221.960938 281.214844 220.816406 283.148438 218.882812 283.648438 C 218.667969 283.722656 218.378906 283.792969 218.09375 283.792969 Z M 112.269531 110.191406 Z M 112.269531 110.191406 " fill-opacity="1" fill-rule="nonzero"/><path fill="#ffffff" d="M 199.75 91.277344 C 173.886719 91.277344 149.457031 88.554688 131.113281 83.539062 C 111.054688 78.09375 100.449219 70.5 100.449219 61.6875 C 100.449219 52.875 111.054688 45.28125 131.113281 39.835938 C 149.527344 34.820312 173.886719 32.097656 199.75 32.097656 C 225.617188 32.097656 250.046875 34.820312 268.390625 39.835938 C 288.449219 45.28125 299.054688 52.875 299.054688 61.6875 C 299.054688 70.5 288.449219 78.09375 268.390625 83.539062 C 249.976562 88.554688 225.617188 91.277344 199.75 91.277344 Z M 199.75 39.191406 C 142.648438 39.191406 107.542969 52.300781 107.542969 61.6875 C 107.542969 71.074219 142.648438 84.113281 199.75 84.113281 C 256.855469 84.113281 291.960938 71.003906 291.960938 61.617188 C 291.960938 52.230469 256.855469 39.191406 199.75 39.191406 Z M 199.75 39.191406 " fill-opacity="1" fill-rule="nonzero"/><path fill="#ffffff" d="M 192.515625 126.527344 C 183.203125 126.527344 174.746094 125.882812 167.582031 124.953125 C 145.011719 122.15625 130.324219 116.570312 129.753906 116.355469 C 127.890625 115.636719 126.957031 113.558594 127.675781 111.699219 C 128.390625 109.835938 130.46875 108.902344 132.332031 109.621094 C 133.046875 109.90625 190.507812 131.257812 250.191406 109.621094 C 252.054688 108.976562 254.132812 109.90625 254.777344 111.769531 C 255.421875 113.632812 254.488281 115.710938 252.628906 116.355469 C 231.203125 124.09375 210.285156 126.527344 192.515625 126.527344 Z M 192.515625 126.527344 " fill-opacity="1" fill-rule="nonzero"/><path fill="#ffffff" d="M 180.121094 151.964844 C 147.878906 151.964844 117.5 150.171875 92.28125 146.734375 C 75.660156 144.441406 62.476562 141.644531 53.019531 138.351562 C 41.699219 134.410156 36.253906 129.824219 36.253906 124.378906 C 36.253906 118.003906 43.417969 112.988281 58.75 108.617188 C 71.648438 104.960938 89.84375 101.953125 111.554688 99.875 C 113.488281 99.660156 115.28125 101.164062 115.496094 103.101562 C 115.710938 105.035156 114.207031 106.824219 112.269531 107.039062 C 90.992188 109.046875 73.222656 111.984375 60.757812 115.566406 C 46.570312 119.648438 43.417969 123.375 43.417969 124.449219 C 43.417969 126.671875 52.589844 134.121094 93.285156 139.710938 C 118.144531 143.078125 148.238281 144.871094 180.121094 144.871094 C 202.617188 144.871094 224.972656 143.9375 244.746094 142.148438 C 266.886719 140.140625 285.511719 137.203125 298.554688 133.621094 C 313.527344 129.464844 316.824219 125.597656 316.824219 124.449219 C 316.824219 122.875 311.808594 117.789062 288.808594 112.914062 C 286.875 112.484375 285.65625 110.621094 286.015625 108.6875 C 286.371094 106.753906 288.308594 105.535156 290.242188 105.894531 C 320.476562 112.34375 323.988281 119.578125 323.988281 124.449219 C 323.988281 130.96875 316.535156 136.058594 300.488281 140.5 C 287.019531 144.226562 267.960938 147.304688 245.390625 149.3125 C 225.402344 151.03125 202.832031 151.964844 180.121094 151.964844 Z M 180.121094 151.964844 " fill-opacity="1" fill-rule="nonzero"/><path fill="#ffffff" d="M 133.980469 214.796875 C 114.0625 214.796875 94.503906 213.578125 77.449219 211.359375 C 51.871094 207.992188 21.421875 201.042969 21.421875 187.214844 C 21.421875 174.101562 49.363281 167.222656 72.722656 163.714844 C 74.65625 163.425781 76.519531 164.789062 76.804688 166.722656 C 77.09375 168.65625 75.730469 170.519531 73.796875 170.804688 C 40.625 175.75 28.585938 183.273438 28.585938 187.214844 C 28.585938 189.078125 31.8125 192.445312 40.839844 195.882812 C 49.792969 199.320312 62.835938 202.1875 78.382812 204.265625 C 95.074219 206.488281 114.347656 207.632812 133.980469 207.632812 C 142.792969 207.632812 151.535156 207.417969 159.988281 206.917969 C 182.984375 205.699219 203.691406 202.761719 218.378906 198.675781 C 234.929688 194.089844 239.300781 189.292969 239.300781 187.214844 C 239.300781 184.5625 232.421875 178.1875 206.488281 172.957031 C 204.550781 172.597656 203.261719 170.664062 203.691406 168.730469 C 204.050781 166.792969 205.984375 165.503906 207.917969 165.933594 C 233.496094 171.019531 246.464844 178.1875 246.464844 187.214844 C 246.464844 208.347656 174.746094 213.292969 160.347656 214.082031 C 151.75 214.511719 142.863281 214.796875 133.980469 214.796875 Z M 133.980469 214.796875 " fill-opacity="1" fill-rule="nonzero"/></svg>